<svg width="76" height="12" viewBox="0 0 76 12" fill="none" xmlns="http://www.w3.org/2000/svg">
<path d="M12.4149 4.32815L8.54177 3.79392L6.80552 0.321436C6.80552 0.0543213 6.53841 0.0543213 6.40485 0.0543213L6.27129 0.187879L4.53505 3.66037L0.661891 4.1946C0.528334 4.1946 0.394775 4.32815 0.394775 4.59527C0.394775 4.72883 0.394776 4.72882 0.528333 4.86238L3.33304 7.53353L2.66525 11.4067C2.66525 11.5402 2.79881 11.8074 2.93236 11.8074C3.06592 11.8074 3.06592 11.8074 3.19948 11.8074L6.67197 10.0711L10.1445 11.8074C10.278 11.9409 10.5451 11.8074 10.5451 11.6738V11.5402L9.87734 7.66708L12.682 4.99594C12.8156 4.86238 12.8156 4.72883 12.682 4.59527C12.5485 4.32815 12.4149 4.32815 12.4149 4.32815Z" fill="#FFC014"/>
<path d="M28.0409 4.32797L24.1677 3.79374L22.4315 0.187695C22.2979 0.0541382 22.1644 0.0541382 22.0308 0.0541382L21.8973 0.187695L20.161 3.66018L16.2879 4.19441C16.1543 4.19441 16.0208 4.32797 16.0208 4.59508C16.0208 4.72864 16.0208 4.72864 16.1543 4.8622L18.959 7.53334L18.2912 11.4065C18.2912 11.5401 18.4248 11.8072 18.5583 11.8072C18.6919 11.8072 18.6919 11.8072 18.8255 11.8072L22.2979 10.0709L25.7704 11.8072C25.904 11.9407 26.1711 11.8072 26.1711 11.6736V11.5401L25.5033 7.6669L28.308 4.99576C28.4416 4.8622 28.4416 4.72864 28.308 4.59508C28.1745 4.32797 28.0409 4.32797 28.0409 4.32797Z" fill="#FFC014"/>
<path d="M43.5337 4.32797L39.7941 3.66018L38.0578 0.187695C37.9243 0.0541382 37.7907 0.0541382 37.5236 0.0541382L37.3901 0.187695L35.6538 3.66018L31.9142 4.32797C31.7807 4.32797 31.6471 4.46153 31.6471 4.72864C31.6471 4.8622 31.6471 4.8622 31.7807 4.99576L34.5854 7.6669L33.784 11.4065C33.784 11.5401 33.9176 11.8072 34.0511 11.8072C34.1847 11.8072 34.1847 11.8072 34.3182 11.8072L37.7907 10.0709L41.1297 11.6736C41.2632 11.8072 41.5303 11.6736 41.5303 11.5401V11.4065L40.9961 7.53334L43.8008 4.8622C43.9344 4.72864 43.9344 4.59508 43.8008 4.46153C43.6672 4.32797 43.6672 4.32797 43.5337 4.32797Z" fill="#FFC014"/>
<path d="M59.1598 4.32797L55.2866 3.79374L53.5504 0.321253C53.5504 0.0541382 53.2833 0.0541382 53.1497 0.0541382L53.0162 0.187695L51.2799 3.66018L47.4068 4.19441C47.2732 4.19441 47.1396 4.32797 47.1396 4.59508C47.1396 4.72864 47.1396 4.72864 47.2732 4.8622L50.0779 7.53334L49.4101 11.4065C49.4101 11.5401 49.5437 11.8072 49.6772 11.8072C49.8108 11.8072 49.8108 11.8072 49.9444 11.8072L53.4168 10.0709L56.8893 11.8072C57.0229 11.9407 57.29 11.8072 57.29 11.6736V11.5401L56.6222 7.6669L59.4269 4.99576C59.5605 4.8622 59.5605 4.72864 59.4269 4.59508C59.2934 4.32797 59.2934 4.32797 59.1598 4.32797Z" fill="#FFC014"/>
<path opacity="0.25" d="M74.7858 4.32797L70.9126 3.79374L69.1764 0.187695C69.1764 0.0541382 68.9093 0.0541382 68.7757 0.0541382L68.6421 0.187695L66.9059 3.66018L63.0327 4.19441C62.8992 4.19441 62.7656 4.32797 62.7656 4.59508C62.7656 4.72864 62.7656 4.72864 62.8992 4.8622L65.7039 7.53334L65.0361 11.4065C65.0361 11.5401 65.1697 11.8072 65.3032 11.8072C65.4368 11.8072 65.4368 11.8072 65.5703 11.8072L69.0428 10.0709L72.5153 11.8072C72.6489 11.9407 72.916 11.8072 72.916 11.6736V11.5401L72.2482 7.6669L75.0529 4.99576C75.1865 4.8622 75.1865 4.72864 75.0529 4.59508C74.9193 4.32797 74.7858 4.32797 74.7858 4.32797Z" fill="#AEAEAE"/>
</svg>
